<?xml version="1.0" standalone="no"?>
<!DOCTYPE svg PUBLIC "-//W3C//DTD SVG 20010904//EN"
 "http://www.w3.org/TR/2001/REC-SVG-20010904/DTD/svg10.dtd">
<svg version="1.0" xmlns="http://www.w3.org/2000/svg"
 width="533.000000pt" height="78.000000pt" viewBox="0 0 533.000000 78.000000"
 preserveAspectRatio="xMidYMid meet">
<metadata>
Created by potrace 1.16, written by Peter Selinger 2001-2019
</metadata>
<g transform="translate(0.000000,78.000000) scale(0.100000,-0.100000)"
fill="#000000" stroke="none">
<path d="M31 749 l-31 -31 0 -330 0 -330 29 -29 c28 -27 34 -29 114 -29 l85 0
4 173 c3 193 11 218 78 260 46 29 168 31 217 4 31 -17 34 -17 60 0 21 14 47
18 110 18 l83 0 0 122 0 123 -50 0 c-68 0 -191 -26 -269 -57 -195 -78 -328
-209 -418 -413 -37 -85 -43 -66 -12 36 71 232 244 413 477 499 33 12 12 14
-205 14 l-241 1 -31 -31z"/>
<path d="M3521 747 c-48 -19 -108 -72 -134 -120 -31 -59 -31 -194 0 -252 109
-203 374 -171 439 53 35 118 -22 253 -129 308 -40 21 -134 27 -176 11z m150
-98 c69 -49 92 -176 46 -252 -85 -141 -257 -75 -257 99 0 103 55 174 137 174
29 0 55 -7 74 -21z"/>
<path d="M4560 753 c-57 -10 -91 -26 -120 -59 -25 -29 -30 -43 -30 -84 0 -27
5 -61 12 -75 15 -34 64 -63 118 -70 103 -15 160 -47 160 -90 0 -78 -155 -82
-195 -6 -14 28 -20 31 -62 31 l-45 0 6 -32 c16 -81 90 -128 201 -128 128 0
202 61 192 157 -3 24 -12 54 -21 68 -22 33 -85 64 -156 77 -75 13 -120 40
-120 72 0 76 137 85 185 12 14 -21 25 -26 57 -26 39 0 40 1 33 28 -11 44 -39
85 -70 103 -32 18 -104 29 -145 22z"/>
<path d="M1020 730 c-19 -19 -20 -31 -18 -248 l3 -227 43 -3 42 -3 0 185 c0
102 4 186 9 186 4 0 30 -83 56 -185 l48 -185 51 0 52 0 44 180 c24 99 48 180
52 180 4 0 8 -81 8 -180 l0 -180 45 0 45 0 0 250 0 250 -74 0 -74 0 -16 -67
c-44 -175 -79 -303 -85 -303 -3 0 -24 69 -45 153 -22 83 -43 167 -48 185 -9
31 -10 32 -63 32 -42 0 -60 -5 -75 -20z"/>
<path d="M1580 730 c-19 -19 -20 -31 -18 -248 l3 -227 178 -3 177 -2 0 45 0
45 -130 0 -130 0 0 65 0 65 83 0 c91 0 107 8 107 52 l0 28 -95 0 -95 0 0 55 0
55 130 0 130 0 0 45 0 45 -160 0 c-147 0 -162 -2 -180 -20z"/>
<path d="M1993 734 c-10 -4 -13 -63 -13 -245 l0 -239 45 0 44 0 3 98 3 97 59
3 c102 5 135 -25 136 -123 0 -63 9 -75 54 -75 l41 0 -3 92 c-3 89 -4 94 -33
119 -24 21 -27 28 -15 32 47 18 71 120 42 176 -30 57 -57 66 -211 68 -77 1
-146 0 -152 -3z m253 -82 c20 -13 36 -54 30 -78 -9 -35 -55 -54 -131 -54 l-65
0 0 70 0 70 78 0 c42 0 82 -4 88 -8z"/>
<path d="M2453 729 c-10 -10 -13 -73 -13 -247 l0 -234 153 4 c127 2 157 6 183
22 44 26 64 66 64 124 0 52 -27 102 -56 102 -20 0 -18 8 11 42 32 38 40 71 29
116 -17 66 -45 77 -212 80 -109 2 -150 0 -159 -9z m261 -85 c21 -20 20 -53 -1
-76 -13 -14 -31 -18 -95 -18 l-78 0 0 55 0 55 79 0 c59 0 84 -4 95 -16z m4
-190 c29 -20 30 -76 2 -104 -17 -17 -33 -20 -100 -20 l-80 0 0 70 0 70 78 0
c54 0 84 -5 100 -16z"/>
<path d="M2922 728 c-9 -9 -12 -77 -12 -245 l0 -233 50 0 50 0 0 100 0 100 59
0 c109 0 125 -16 136 -133 l7 -67 46 0 47 0 -6 87 c-6 99 -13 120 -40 128 -25
8 -24 17 6 45 32 30 45 79 35 125 -10 44 -35 73 -77 91 -42 18 -283 20 -301 2z
m268 -88 c26 -26 26 -72 -1 -96 -16 -14 -40 -20 -100 -23 l-79 -3 0 71 0 71
80 0 c67 0 83 -3 100 -20z"/>
<path d="M3917 722 c-15 -16 -17 -48 -17 -245 l0 -227 50 0 49 0 3 103 3 102
27 3 c24 3 36 -9 105 -102 l78 -105 58 -1 58 0 -23 33 c-12 17 -59 82 -105
143 l-82 112 95 101 96 101 -57 0 -58 0 -98 -102 -98 -103 -1 103 0 102 -33 0
c-20 0 -41 -8 -50 -18z"/>
<path d="M5038 728 c-9 -7 -51 -110 -92 -228 -41 -118 -78 -223 -82 -233 -6
-16 -1 -18 47 -15 l53 3 15 48 15 48 99 -3 99 -3 17 -45 c16 -44 18 -45 64
-48 34 -2 47 1 46 10 0 7 -40 117 -88 243 l-87 230 -44 3 c-26 2 -52 -3 -62
-10z m86 -185 c16 -49 32 -94 34 -100 3 -10 -14 -13 -67 -13 -39 0 -71 3 -71
7 0 18 62 193 68 193 4 0 20 -39 36 -87z"/>
<path d="M392 353 c-32 -13 -42 -61 -42 -196 0 -90 -4 -137 -12 -145 -9 -9 9
-12 81 -12 l92 0 -3 154 c-3 148 -4 156 -27 180 -23 25 -57 32 -89 19z"/>
<path d="M651 334 c-19 -24 -21 -40 -21 -180 l0 -154 50 0 c41 0 56 5 75 25
24 23 25 29 25 153 0 116 -2 132 -21 156 -15 19 -30 26 -54 26 -24 0 -39 -7
-54 -26z"/>
</g>
</svg>
