<?xml version="1.0" encoding="utf-8"?>
<!-- Generator: Adobe Illustrator 25.0.0, SVG Export Plug-In . SVG Version: 6.00 Build 0)  -->
<svg version="1.1" id="Capa_1" xmlns="http://www.w3.org/2000/svg" xmlns:xlink="http://www.w3.org/1999/xlink" x="0px" y="0px"
	 viewBox="0 0 800 283" style="enable-background:new 0 0 800 283;" xml:space="preserve">
<style type="text/css">
	.st0{fill:#E11822;}
	.st1{fill:#A91B21;}
	.st2{fill:#1478CA;}
	.st3{fill:#023141;}
	.st4{fill:#0C5077;}
</style>
<g>
	<path class="st0" d="M423.4,2.1c-37.3,0-67.5,30.2-67.5,67.5c0,0,0,0,0,0c0,37.3,67.5,135.7,67.5,135.7s67.5-98.4,67.5-135.7
		C490.9,32.3,460.7,2.1,423.4,2.1C423.4,2.1,423.4,2.1,423.4,2.1z M423.4,98.4c-17.5,0-31.8-14.2-31.8-31.7
		c0-17.5,14.2-31.8,31.7-31.8c17.5,0,31.8,14.2,31.8,31.7c0,0,0,0,0,0C455.1,84.1,440.9,98.4,423.4,98.4z"/>
	<path class="st1" d="M367.4,75.5c0-32.4,26.3-58.7,58.7-58.7c18.2,0,35.4,8.5,46.5,22.9c-16.1-28.1-52-37.8-80.1-21.7
		s-37.8,52-21.7,80.1c1.3,2.3,2.8,4.5,4.4,6.6C370.1,95.9,367.4,85.8,367.4,75.5z"/>
	<path class="st1" d="M407.4,179.5c9.2,15.4,15.9,25.8,15.9,25.8s67.5-98.4,67.5-135.7c0-2-0.1-3.9-0.3-5.8
		c-2.7,10.4-6.4,20.4-11.1,30.1c-12.8,26.6-31.7,43.7-51.8,65.2C421.3,166.1,414.5,173,407.4,179.5z"/>
	<path class="st2" d="M77,245.2H49v-11.8h28c7.3-0.1,13.4,5.8,13.5,13.1c0.1,7.3-5.8,13.4-13.1,13.5l14.8,14.8H75.5L60.7,260v14.8
		H48.9v-26.6H77c0.8,0.1,1.5-0.5,1.6-1.4c0.1-0.8-0.5-1.5-1.4-1.6C77.2,245.2,77.1,245.2,77,245.2z"/>
	<path class="st2" d="M126.3,274.8l-11-19.1l-11,19.1H90.7l24.6-42.7l24.7,42.7H126.3z"/>
	<path class="st2" d="M153.7,233.4h28v11.8h-28c-0.8-0.1-1.5,0.5-1.6,1.4s0.5,1.5,1.4,1.6c0.1,0,0.2,0,0.2,0h14.8
		c7.3,0,13.3,6,13.3,13.3c0,7.3-5.9,13.3-13.3,13.3h-28V263h28c0.4,0,0.8-0.2,1.1-0.4c0.3-0.3,0.4-0.6,0.4-1c0-0.8-0.6-1.5-1.4-1.5
		c0,0,0,0-0.1,0h-14.8c-7.3,0-13.3-6-13.3-13.3c0-7.3,5.9-13.3,13.3-13.3V233.4z"/>
	<path class="st2" d="M214.2,245.2v29.5h-11.8v-29.5h-14.8v-11.8h41.3v11.8H214.2z"/>
	<path class="st2" d="M262.9,245.2h-28v-11.8h28c7.3-0.1,13.4,5.7,13.5,13.1c0.1,7.3-5.7,13.4-13.1,13.5l0,0l14.7,14.8h-16.6
		L246.6,260v14.8h-11.8v-26.6h28c0.4,0,0.8-0.1,1-0.4c0.6-0.6,0.6-1.5,0-2.1C263.6,245.4,263.2,245.2,262.9,245.2z"/>
	<path class="st2" d="M323.4,245.2H282v-11.8h41.3L323.4,245.2z M323.4,260H282v-11.8h41.3L323.4,260z M323.4,274.8H282V263h41.3
		L323.4,274.8z"/>
	<path class="st2" d="M349.9,274.8c-11.4,0-20.7-9.2-20.7-20.7s9.2-20.7,20.7-20.7c11.4,0,20.7,9.2,20.7,20.7
		c0,5.5-2.2,10.7-6.1,14.6C360.7,272.6,355.4,274.8,349.9,274.8z M349.9,263c4.9,0,8.9-4,8.9-8.9c0-4.9-4-8.9-8.9-8.9
		c-4.9,0-8.9,4-8.9,8.9c0,2.4,0.9,4.6,2.6,6.3C345.3,262.1,347.5,263,349.9,263L349.9,263z"/>
	<path class="st2" d="M404.7,233.4h28v11.8h-28c-0.8-0.1-1.5,0.5-1.6,1.4c-0.1,0.8,0.5,1.5,1.4,1.6c0.1,0,0.2,0,0.2,0h14.8
		c7.3,0,13.3,6,13.3,13.3c0,7.3-5.9,13.3-13.3,13.3h-28V263h28c0.4,0,0.7-0.2,1-0.4c0.3-0.3,0.4-0.6,0.4-1c0-0.8-0.6-1.5-1.4-1.5
		c0,0,0,0-0.1,0h-14.7c-7.3,0-13.3-6-13.3-13.3c0-7.3,5.9-13.3,13.3-13.3V233.4z"/>
	<path class="st2" d="M468,274.8l-11-19.1l-11,19.1h-13.6l24.6-42.7l24.6,42.7H468z"/>
	<path class="st2" d="M499.8,245.2v29.5H488v-29.5h-14.8v-11.8h41.3v11.8H499.8z"/>
	<path class="st2" d="M561.7,245.2h-41.3v-11.8h41.3V245.2z M561.7,260h-41.3v-11.8h41.3V260z M561.7,274.8h-41.3V263h41.3V274.8z"
		/>
	<path class="st2" d="M579.4,263H609v11.8h-41.4v-41.4h11.8V263z"/>
	<path class="st2" d="M626.7,274.8h-11.8v-41.3h11.8V274.8z"/>
	<path class="st2" d="M659.1,245.2v29.5h-11.8v-29.5h-14.8v-11.8h41.3v11.8H659.1z"/>
	<path class="st2" d="M701.1,274.8l-11-19.1l-11,19.1h-13.6l24.6-42.7l24.6,42.7H701.1z"/>
	<path class="st2" d="M727,263h29.5v11.8h-41.3v-41.4H727V263z"/>
	<path class="st3" d="M0.3,121.8V40.5h46.4v81.2c-0.1,9.3,3.6,18.2,10.2,24.6c6.4,6.7,15.3,10.4,24.6,10.2
		c19.2,0,34.8-15.6,34.8-34.8V40.5h46.4v81.2c0,22.4-7.9,41.6-23.8,57.4S104,203,81.6,203c-22.4,0-41.6-7.9-57.5-23.8
		S0.3,144.2,0.3,121.8z"/>
	<path class="st3" d="M296.3,86.9H186V40.5h110.3c13.9-0.2,27.2,5.3,36.9,15.3c10,9.7,15.5,23,15.3,36.9c0.1,10.3-2.9,20.5-8.7,29
		c13.7,20.8,11,48.3-6.6,65.9c-9.7,10-23,15.5-36.9,15.4H186v-46.4h110.3c3.2,0.1,5.9-2.4,6-5.6c0.1-3.2-2.4-5.9-5.6-6
		c-0.2,0-0.3,0-0.5,0H186V98.5h110.3c3.2,0.1,5.9-2.4,6-5.6c0.1-3.2-2.4-5.9-5.6-6C296.6,86.9,296.4,86.9,296.3,86.9z"/>
	<path class="st3" d="M606.4,145.8H501.9V99.4h104.5V145.8z"/>
	<path class="st4" d="M676,145.8v58h-46.4V41.4H676v58l58-58h65.5l-81.2,81.2l81.2,81.2H734L676,145.8z"/>
</g>
</svg>
