<?xml version="1.0" encoding="utf-8"?>
<!-- Generator: Adobe Illustrator 25.0.0, SVG Export Plug-In . SVG Version: 6.00 Build 0)  -->
<svg version="1.1" id="Capa_1" xmlns="http://www.w3.org/2000/svg" xmlns:xlink="http://www.w3.org/1999/xlink" x="0px" y="0px"
	 viewBox="0 0 1080 1080" style="enable-background:new 0 0 1080 1080;" xml:space="preserve">
<style type="text/css">
	.st0{fill:#F0C64C;}
	.st1{fill:#C7EFFF;}
	.st2{opacity:0.5;}
	.st3{fill:#FFFFFF;}
	.st4{fill:#333333;}
	.st5{fill:#4D4D4D;}
	.st6{fill:#B1B1B1;}
	.st7{fill:#808080;}
	.st8{fill:#D03D45;}
	.st9{fill:#B82935;}
	.st10{fill:#E75256;}
	.st11{fill:#A11424;}
	.st12{fill:#890014;}
	.st13{opacity:0.5;fill:#FFFFFF;enable-background:new    ;}
	.st14{fill:#CA2200;}
	.st15{clip-path:url(#SVGID_2_);fill:none;stroke:#1478CA;stroke-width:2;stroke-miterlimit:10;}
	.st16{fill:#C21E27;}
	.st17{fill:#912126;}
</style>
<rect x="-5.5" y="1046.7" class="st0" width="1085.5" height="1.9"/>
<g>
	<path class="st1" d="M612.8,982.9l31.9,16.8h7.9c-11.4-8.6-29.4-16.1-34.8-17.5L612.8,982.9z"/>
	<g class="st2">
		<path class="st3" d="M634.9,989.3l4.5,7.7l5.2,2.7h2.9l-3.1-5.4C641.3,992.6,638,990.8,634.9,989.3z"/>
		<path class="st3" d="M626.2,985.4c-1.6-0.7-3.1-1.3-4.4-1.8l3.5,6l4.9,2.6L626.2,985.4z"/>
		<path class="st3" d="M632.2,993.2l4.9,2.6l-4.4-7.6c-1.6-0.8-3.1-1.5-4.6-2.1L632.2,993.2z"/>
	</g>
	<path class="st4" d="M690.1,1023.1l-1.8,5.8l5.8,2.7c1.4-4.2-0.4-8,0-9.6L690.1,1023.1z"/>
	<path class="st4" d="M653.2,1001.6c0,0-10.6-2.2-7.2-3.5c3.4-1.3,8.1-1,10.8-0.4L653.2,1001.6z"/>
	<path class="st4" d="M549.8,968c0,0.4,0.3,0.7,0.7,0.7l0,0l5.5,11c-0.2,0.7-0.5,1.3-0.9,1.9l3.3-0.4c-0.4-0.8-1.1-1.5-1.9-1.9
		l-5.4-10.9c0.1-0.1,0.1-0.3,0.1-0.4l0,0c0-0.4-0.3-0.7-0.7-0.7C550.1,967.3,549.8,967.6,549.8,968z"/>
	<path class="st1" d="M543,987.5c0,0-6.2,12.5-6.4,12.4s-12.8,3.5-11.7,1c1.1-2.5,9.5-12.3,14.4-15.8L543,987.5z"/>
	<g class="st2">
		<path class="st3" d="M536.6,987.4l3.5,6c1.5-3,2.9-5.8,2.9-5.8l-3.7-2.4C538.4,985.8,537.5,986.6,536.6,987.4z"/>
		<path class="st3" d="M530.6,993.6l4,6.8c1.2-0.3,2.1-0.5,2.1-0.5c0.2-0.3,0.3-0.5,0.5-0.8l-4.5-7.8
			C531.9,992.1,531.2,992.9,530.6,993.6z"/>
		<path class="st3" d="M537.8,997.9c0.5-0.9,1-2,1.6-3.1l-3.8-6.5c-0.7,0.7-1.4,1.4-2.1,2.1L537.8,997.9z"/>
	</g>
	<path class="st4" d="M680.1,1027.9c0.3,0-8.7-15.2-8.7-15.2l-20.5,2.6l-7.8,15.4h-78.3l-11.1-17.9h-20.2l-7.9,17.1l3,2.7
		c1.5-0.1,3.1-0.3,4.6-0.8l18.2,1.1c0,0,6.8,2.5,10,2.6l28.5-2.6c0,0,53.3,2.2,55.5,2.6c2.2,0.4,2.8-0.2,4.4-1.8s0,0,0.1,0
		s20-3.7,20-3.7s5.3,5.5,8.6,4.5C678.5,1034.5,679.8,1027.9,680.1,1027.9z"/>
	
		<ellipse transform="matrix(0.7071 -0.7071 0.7071 0.7071 -534.95 769.7553)" class="st4" cx="661.7" cy="1030.6" rx="14.3" ry="14.3"/>
	
		<ellipse transform="matrix(0.1602 -0.9871 0.9871 0.1602 -461.6006 1518.6947)" class="st5" cx="661.7" cy="1030.6" rx="13.6" ry="13.6"/>
	
		<ellipse transform="matrix(0.7331 -0.6801 0.6801 0.7331 -524.3252 725.0532)" class="st4" cx="661.7" cy="1030.6" rx="11.3" ry="11.3"/>
	
		<ellipse transform="matrix(0.8112 -0.5847 0.5847 0.8112 -477.7123 581.4413)" class="st6" cx="661.7" cy="1030.6" rx="10.8" ry="10.8"/>
	
		<ellipse transform="matrix(0.3827 -0.9239 0.9239 0.3827 -543.6876 1247.5549)" class="st4" cx="661.7" cy="1030.6" rx="10.1" ry="10.1"/>
	
		<ellipse transform="matrix(0.8986 -0.4388 0.4388 0.8986 -385.1769 394.9398)" class="st7" cx="661.7" cy="1030.7" rx="4.4" ry="4.4"/>
	<path class="st6" d="M659.7,1040.8c1.3,0.3,2.7,0.3,4.1,0l-0.9-8.5l7.8,3.5c0.7-1.2,1.1-2.5,1.3-3.9l-8.4-1.8l5.7-6.4
		c-0.9-1-2.1-1.8-3.3-2.4l-4.3,7.4l-4.3-7.4c-1.2,0.6-2.4,1.4-3.3,2.4l5.7,6.4l-8.4,1.8c0.2,1.4,0.6,2.7,1.3,3.9l7.8-3.5
		L659.7,1040.8z"/>
	<circle class="st4" cx="544.7" cy="1030.6" r="14.3"/>
	
		<ellipse transform="matrix(0.1602 -0.9871 0.9871 0.1602 -559.8455 1403.2218)" class="st5" cx="544.7" cy="1030.6" rx="13.6" ry="13.6"/>
	<circle class="st4" cx="544.7" cy="1030.6" r="11.3"/>
	
		<ellipse transform="matrix(0.8112 -0.5847 0.5847 0.8112 -499.792 513.0418)" class="st6" cx="544.7" cy="1030.6" rx="10.8" ry="10.8"/>
	
		<ellipse transform="matrix(0.1602 -0.9871 0.9871 0.1602 -559.8455 1403.2218)" class="st4" cx="544.7" cy="1030.6" rx="10.1" ry="10.1"/>
	
		<ellipse transform="matrix(0.9996 -2.901214e-02 2.901214e-02 0.9996 -29.6712 16.2374)" class="st7" cx="544.7" cy="1030.6" rx="4.4" ry="4.4"/>
	<path class="st6" d="M542.7,1040.8c1.3,0.3,2.7,0.3,4.1,0l-0.9-8.5l7.8,3.5c0.7-1.2,1.1-2.5,1.3-3.9l-8.4-1.8l5.8-6.4
		c-0.9-1-2.1-1.8-3.3-2.4l-4.3,7.4l-4.3-7.4c-1.3,0.6-2.4,1.4-3.3,2.4l5.8,6.4l-8.4,1.8c0.2,1.4,0.6,2.7,1.3,3.9l7.8-3.5
		L542.7,1040.8z"/>
	<path class="st8" d="M690.8,1028.3c-0.2-3.1,3.8-5.7,3.8-6.4c0.3-2.5-1-5.4-1.6-7c-0.7-1.5-1.5-3-2.4-4.4
		c-7.1-6.6-16.9-9.6-33.8-12.8c-1,1.1-4.4,1.5-6.9,1c-6.5-1.3-20.7-10.7-34.3-15.4c0.6-0.5,1.3-0.8,2.1-1.1c0,0-4.7-1.8-19.6-3.1
		c-34.2-0.8-59.4,3.4-61.1,3.9c-1.7,0.4,0.2,3.2,4.3,4.7c-3.9,5-13.7,8.6-16.2,12.8c-1.5,2.7-1.4,7-1.3,10.4c0.1,3.4-1.2,3-1.9,4.8
		c-0.7,1.8-0.1,6.9,0.2,10.5c0.3,3.6,1.2,5.8,6.5,6.3c-0.9-5.1,2-17.3,15.4-17.3c13.3,0,17.9,12,17.4,20.3c5.4-0.3,64.4-0.6,84,0
		c-1-9,4.1-20,16.3-20.3c12.3-0.3,17.2,9.8,16.8,19.4c4.3-0.1,16.3-1.3,16.3-2.5C694.8,1030.3,690.8,1029.2,690.8,1028.3z"/>
	<path class="st9" d="M521.9,1015.7c-0.7,1.8-0.1,6.9,0.2,10.5c0.3,3.6,1.2,5.8,6.5,6.3c-0.9-5.1,2-17.3,15.4-17.3
		c13.3,0,17.9,12,17.4,20.3c5.4-0.3,64.4-0.6,84,0c-1-9,4.1-20,16.3-20.3c12.3-0.3,17.2,9.8,16.8,19.4c4.3-0.1,16.3-1.3,16.3-2.5
		c0-1.8-4-2.8-4-3.7c-0.2-3.1,3.8-5.7,3.8-6.4c0.2-2-0.6-4.2-1.2-5.8c-6-4-15.9-6.5-15.9-6.5c-23.8-2.6-26.6,4.7-49.5,1.1
		c-22.9-3.6-58.9,1.7-68.2-0.7c-9.4-2.4-19-2.3-25.1,1.6c-6.1,3.9-11.4,5.5-11.2,3.3c0-0.4,0-0.9,0-1.6
		C523.1,1014.3,522.3,1014.6,521.9,1015.7z"/>
	<path class="st10" d="M571.7,1003.5c-8.4-4.5-33.6-6.2-34.9-7.6s4.6-7.7,16.6-7.2s87.4,8.7,87.4,8.7c7.1,4,27.9,5.8,34.2,9.6
		c6.3,3.9,5.4,0.8,5.1,0.8c-13.6-7.6-29.4-6.6-35.6-10.1c-6.2-3.4-25.5-15.2-44.1-15.9c-18.5-0.7-51.6,0.8-59.2,5.8l0.2,0.1
		c-1.6,2-4.2,3.8-6.9,5.6c-1.6,2.1-1.2,3.5,1.3,3.8c4.5,0.4,6.2,1.1,7.5,1.7c-6.2-0.2-11.3,1.1-13.4,2.7
		C539.1,1000,571.7,1003.5,571.7,1003.5z"/>
	<path class="st11" d="M690.7,1028.3c-0.2-3.1,3.8-5.7,3.8-6.4c0.3-2.5-1-5.4-1.6-7c-0.7-1.5-1.5-3-2.4-4.4c-3.3-3-7.1-5.3-11.2-6.9
		c4.1,2.5,9.5,6.3,9.9,8.6c0,0-1.1,3.4-7.4,3.2c-6.2-0.2-9.8-4.5-18.1-2.8c5.9-0.1,12.4,4.2,14.1,7.8c1.5,3.2,0.4,2.8-2.8,1.2
		c2.5,3.6,3.6,8.4,3.4,13c4.3-0.1,16.3-1.3,16.3-2.5C694.8,1030.3,690.8,1029.2,690.7,1028.3z"/>
	<path class="st11" d="M561.4,1035.4c5.4-0.3,64.4-0.6,84,0c-0.7-6.1,1.4-13,6.5-17c-3,0.5-5.6,1.3-6.7,2.6c1.1-7.3-24.4-7-50.3-7.1
		c-25.8-0.1-34.6,2-34.7,5.5c-1.6-1.1-4.4-3-8.4-3.6c-2.2-0.3-4.5-0.5-6.8-0.6C557.5,1015.9,561.9,1027.4,561.4,1035.4z"/>
	<path class="st11" d="M528.4,1018.7c0,0-0.9-0.8-4-1.2c-1.8-0.2-2.5-0.7-2.6-1.4c-0.5,2,0,6.8,0.3,10.1c0.3,3.6,1.2,5.8,6.5,6.3
		c-0.8-4.6,1.6-15.4,12.3-17.1c-9.3,1-13.9,5.9-14.9,11.4C525.9,1026.8,526.3,1021.4,528.4,1018.7z"/>
	<path class="st8" d="M543.9,1015.2c1.4,0,2.8,0.1,4.2,0.4c4.1,0.6,8.1,2.1,8.3,0.9c0.1-0.8-2.7-3.2-5.8-4c-7.4-2-16.2-0.5-20.6,6.6
		c0,0,4.7-3.1,9.2-3.4C540.8,1015.3,542.3,1015.1,543.9,1015.2z"/>
	<path class="st8" d="M635.1,1028.8v-0.2c0.1-1.5-20.4-6.5-34.7-7.3s-32.3,2.9-30.5,5.5c1.8,2.6,31.3,0.8,34.7,0.4
		C608,1026.7,635,1030.5,635.1,1028.8z"/>
	<path class="st8" d="M675.6,1022.3c2.1,1.7,3.8,2.5,4,1.6c0.2-1.2-5.1-9.5-15.1-10.8c-12.2-1.6-19.3,7.9-19.3,7.9
		c1.9-1.4,4.1-2.2,6.5-2.4c2.9-2.3,6.4-3.5,10-3.5C668.4,1015,673,1018,675.6,1022.3z"/>
	<path class="st12" d="M569.1,1030.3L569.1,1030.3c-2.9-1-8.9-9-11.4-12.4c-4.2-5.9-7.9-11.9-8.3-13.4c-0.5-2.4,1.2-6.6,2.5-10.1
		c0.3-0.8,0.6-1.5,0.8-2.1c0.3-0.6,0.9-2.3,20,1.3c9.3,1.8,18.6,4,18.7,4c0.1,0,0.2,0.1,0.2,0.2c2.7,5.4,3.4,13.7,3.6,16.1l0,0
		c-0.3,8.1,3.6,15.6,3.6,15.7c0.1,0.1,0,0.3-0.1,0.4c-0.1,0.1-0.3,0-0.4-0.1c0-0.1-4-7.7-3.7-15.9c-0.2-2.4-0.9-10.5-3.5-15.8
		c-1.2-0.3-9.9-2.3-18.6-4c-17.3-3.3-19.1-2.1-19.3-1.7c-0.2,0.6-0.5,1.4-0.8,2.1c-1.3,3.2-3,7.5-2.5,9.7
		c0.6,2.8,14.8,23.7,19.1,25.3l71,1.7c3.7-6.2,4.2-20.8,4.1-23.5c-0.1-1.8-0.8-3.1-1.6-4.6c-0.3-0.6-0.7-1.3-1-2l0,0
		c-0.1-0.1,0-0.3,0.2-0.4c0.1-0.1,0.3,0,0.4,0.2c0.3,0.7,0.7,1.4,1,2c0.8,1.5,1.6,2.9,1.7,4.8c0.2,2.8-0.4,17.8-4.3,24
		c-0.1,0.1-0.1,0.1-0.3,0.1L569.1,1030.3z"/>
	<path class="st11" d="M601.1,1011.4c-1.2-1.1-5.5-2.1-4.6-2.7c2.5-1.4,10.7,0,10.8,1.6C607.4,1011.6,602.4,1012.4,601.1,1011.4z"/>
	<path class="st1" d="M689.9,1017.4c-6.1,0.5-11-1.7-12.5-4.4s-8.1-5.9-8.8-8.2c8.1,1.3,12.3,2.4,16.8,4.5c4.8,2.3,5.8,4,6,5.5
		C691.4,1015.6,691.4,1016.4,689.9,1017.4z"/>
	<path class="st13" d="M689.9,1017.4c1.5-1.1,1.5-1.8,1.5-2.7c0-0.4-0.2-0.9-0.4-1.3c-3.4-2.7-9.9-3.7-17.7-4.3
		c1.7,1.3,3.4,2.6,4.1,3.8C678.9,1015.7,683.8,1017.9,689.9,1017.4z"/>
	<path class="st13" d="M683.7,1008.6c-2.6-1.1-5.3-1.9-8.1-2.5c3.1,3,5.5,6.6,7.2,10.6c2,0.6,4,0.9,6,0.8
		C687.8,1014.2,686,1011.1,683.7,1008.6z"/>
	<path class="st14" d="M527.6,1009c1.8,0.5,7.8-5.2,9.5-6.3c1.7-1.2,1.1-1.4-3.9-1.5c-5-0.2-8.2,0.2-8.5,3.7
		C524.5,1008,525.8,1008.4,527.6,1009z"/>
	<path class="st14" d="M537.1,1002.7c1.5-1.1,1.2-1.3-2.6-1.5c1.3,0.2,1.6,0.4,0.4,1.5c-1.5,1.4-6,5.4-7.8,4.8
		c-1-0.3-1.8-0.8-2.4-1.6c0.1,2.2,1.4,2.6,2.9,3.1C529.3,1009.5,535.4,1003.8,537.1,1002.7z"/>
	<path class="st14" d="M530.1,1002c1.2,1,1.2,2.9,0,4.4c-1.2,1.4-3.1,1.8-4.3,0.8c-1.2-1-1.2-2.9,0-4.3
		C527,1001.4,528.9,1001.1,530.1,1002z"/>
	<path class="st4" d="M601.8,1026.2c-15.9-0.9-29.7,1.9-33.4,2.2c-3.7,0.4-1.9,1.3-0.5,2.7c1.4,1.4,17.2,0.5,27.1,0.5
		c9.9,0,47.2,1,45.3,0C636.3,1029.5,617.7,1027.1,601.8,1026.2z"/>
	<path class="st11" d="M538.8,1005.1C538.8,1005.1,538.8,1005.1,538.8,1005.1c0-2.2,1.8-3.9,3.9-3.9c2.2,0,3.9,1.8,3.9,3.9
		c0,2.2-1.8,3.9-3.9,3.9C540.5,1009,538.8,1007.3,538.8,1005.1z M539.4,1005.1C539.4,1005.1,539.4,1005.1,539.4,1005.1
		c0,1.8,1.5,3.3,3.3,3.3c1.8,0,3.3-1.5,3.3-3.3c0-1.8-1.5-3.3-3.3-3.3C540.8,1001.8,539.4,1003.3,539.4,1005.1z"/>
	<path class="st4" d="M638.8,995.8c-4.3-2.1-22.2-13.1-37.2-13.2s-39.9,1.6-42.9,1.9c-3.1,0.3-6,1.1-7.1,2c-1,0.9-3.5,2.4-3.3,4.2
		c0.3,3.2,14.9,7.3,18.7,8c3.8,0.7,37.3,2.8,47.3,3.5c10,0.7,35.1,2,34.9,0.3C648.9,1001.7,643,997.9,638.8,995.8z"/>
	<path class="st1" d="M558.9,986c0.1,3.3,0.5,6.5,1.2,9.7c5.5,2.8,16.5,2.6,27.7,3.3c-1.4-2.6-3.4-10.3-3.2-15.1
		C581.5,983.8,562.6,984.6,558.9,986z"/>
	<g class="st2">
		<path class="st3" d="M574.4,998.3c1.2,0.1,2.4,0.1,3.5,0.2l-8.2-14c-1.1,0.1-2.2,0.2-3.2,0.3L574.4,998.3z"/>
		<path class="st3" d="M569.5,997.9c1.1,0.1,2.3,0.2,3.6,0.3l-7.8-13.3c-1.2,0.1-2.2,0.2-3.2,0.4L569.5,997.9z"/>
		<path class="st3" d="M577.6,984.1c-2,0.1-4.2,0.2-6.3,0.3l8.3,14.2c2.2,0.1,4.4,0.2,6.7,0.3L577.6,984.1z"/>
	</g>
	<path class="st1" d="M549.3,990.5c0.3,1.8,5.8,3.8,9.9,4.8c-0.4-1.8-1.4-6.1-1.2-9.2C554.5,985.9,549.1,988.8,549.3,990.5z"/>
	<g class="st2">
		<path class="st3" d="M558.6,992.1c-0.4-2-0.6-4-0.5-6c-1,0-1.9,0.1-2.8,0.3L558.6,992.1z"/>
		<path class="st3" d="M554.1,986.8c-0.9,0.3-1.8,0.7-2.7,1.2l3.5,6c1.4,0.5,2.7,0.9,4.1,1.2L554.1,986.8z"/>
	</g>
	<path class="st1" d="M626.4,991c1.6,3.4,2.4,7.1,2.4,10.9c-3.7,0-18.2-0.6-32.5-2.3c-1.9-2.5-5.4-11.8-5.4-16
		C605.5,983.3,613.7,985.1,626.4,991z"/>
	<g class="st2">
		<path class="st3" d="M608.7,1000.9c1.9,0.2,3.7,0.3,5.5,0.4l-10-17.1c-1.8-0.2-3.6-0.3-5.5-0.4L608.7,1000.9z"/>
		<path class="st3" d="M618.8,987.8c-3.9-1.5-7.9-2.6-12-3.3l9.9,16.9c4.4,0.3,8.1,0.4,10.4,0.5L618.8,987.8z"/>
		<path class="st3" d="M601,1000.2c1.9,0.2,3.7,0.4,5.6,0.5l-10-17.1c-1.7,0-3.4,0-5.2,0L601,1000.2z"/>
	</g>
	<path class="st1" d="M645.7,1002.3c0,0-9.7,0.9-15.2-0.3c0,0,0.1-6.7-1.4-9.7C633.9,994.4,644.6,999.6,645.7,1002.3z"/>
	<g class="st2">
		<path class="st3" d="M630.1,992.7l5.8,9.8c1.2,0,2.3,0,3.4,0l-4.5-7.6C633.1,994.1,631.5,993.3,630.1,992.7z"/>
		<path class="st3" d="M644.8,1001.1l0.7,1.2h0.2C645.4,1001.8,645.1,1001.4,644.8,1001.1z"/>
		<path class="st3" d="M640.7,1002.5c1.3,0,2.4-0.1,3.3-0.2l-2-3.5c-1.5-1-3.3-2-5.1-2.9L640.7,1002.5z"/>
	</g>
	<path class="st11" d="M633,1001.8c-0.4,1.3-0.5,3.8,0.4,4.9s4.2,1.6,4.2,0s-2.2-3.5-2.3-6C635.3,1000.8,633.4,1000.5,633,1001.8z"
		/>
	<path class="st12" d="M628.5,1002.5c0.3,0.9,7,1.9,7.5-1.4s-2.8-4.4-7.5-4.5C626.4,996.6,628.2,1001.6,628.5,1002.5z"/>
</g>
<g>
	<defs>
		<rect id="SVGID_1_" x="-2.1" y="707.9" width="1082.1" height="281.6"/>
	</defs>
	<clipPath id="SVGID_2_">
		<use xlink:href="#SVGID_1_"  style="overflow:visible;"/>
	</clipPath>
	<path class="st15" d="M-2.1,958.7V804.9h12.2v-18.6h19.7v18.1h20.2V947h8h8.5v-38.3h20.8V897h21.3v10.1h8.5v-19.7h34.1v-11.7H165
		v10.1h8.5v-63.3h9v-26.1l5.3-4.3l5.9,4.3v22.9h5.9V807h25.7v12.5h7.2v107.8h3.6v-86.6h16.4v-16.4h24.7v13.2h4v113h61.9v-20h4.8
		V748.1h6.4v-6.8h12v-23.2h14v3.2h9.2v18.8h6.4v145.3h13.2v-11.2h14.8v-6h25.9v75.4h14v-83.8h16.8v-14h23.2v11.6h6.8v93h12.8V819.1
		h14.4v-19.6h24.7v18h4v69.1h10.4v-28.3h10.8v-18l7.2-4.4l6,4.4v16h20.8v40.3h4.8V794.4h45.1v148.1h16v-34.3h9.2v-22.8h8.4v-17.2
		h17.2v18.4h18.8v61.9h9.2v-90.2h43.9v90.2h16v-198h19.6v-30.7h22.4v29.9h5.2v199.2h4v-90.2h48.7v84.6h15.2v-14H951v6.4h19.6v17.6
		h8.4V857l13.8-13.8h24.9v80.8h10.8v15.2h57.1v11.2h8.4v-42.7h22v-11.2h22v8.4h8.8v-88.2h10.8v-8.8h9.2h12v149.3
		C1178.5,957.2-1.9,958.6-2.1,958.7z"/>
</g>
<g>
	<path class="st16" d="M614.8,925.6c0,12.6-22.8,45.8-22.8,45.8s-22.8-33.2-22.8-45.8c0-12.6,10.2-22.8,22.8-22.8
		S614.8,913,614.8,925.6z"/>
	<circle class="st3" cx="592" cy="924.6" r="10.7"/>
	<path class="st17" d="M573.2,927.6c0-10.9,8.9-19.8,19.8-19.8c6.1,0,11.9,2.8,15.6,7.7c-5.4-9.5-17.5-12.7-27-7.3
		s-12.7,17.5-7.3,27c0.4,0.8,0.9,1.5,1.5,2.2C574.1,934.4,573.2,931,573.2,927.6z"/>
	<path class="st17" d="M586.7,962.6c3.1,5.2,5.4,8.7,5.4,8.7s22.8-33.2,22.8-45.8c0-0.7,0-1.3-0.1-2c-0.9,3.5-2.2,6.9-3.7,10.2
		c-4.3,9-10.7,14.7-17.5,22C591.3,958.1,589.1,960.4,586.7,962.6z"/>
</g>
</svg>
