<svg id="Capa_1" data-name="Capa 1" xmlns="http://www.w3.org/2000/svg" viewBox="0 0 480 480"><defs><style>.cls-1{fill:#a91b21;}.cls-2{fill:#1478ca;}.cls-3{fill:#e11822;}.cls-4{fill:#fff;}</style></defs><rect x="0.5" y="-1" width="481" height="481"/><path class="cls-1" d="M225,201a30.63,30.63,0,0,1,54.91-18.68A30.63,30.63,0,1,0,229,216.25,30.42,30.42,0,0,1,225,201Z"/><path class="cls-2" d="M73.4,289.58H58.79v-6.15H73.4a6.94,6.94,0,1,1,.21,13.88L81.34,305H72.62l-7.72-7.72V305H58.74V291.15H73.4a.79.79,0,0,0,.11-1.57Z"/><path class="cls-2" d="M99.14,305l-5.75-10-5.74,10h-7.1l12.84-22.28L106.29,305Z"/><path class="cls-2" d="M113.44,283.43h14.61v6.15H113.44a.78.78,0,0,0-.84.74.73.73,0,0,0,.73.83h7.83a6.94,6.94,0,1,1,0,13.88H106.55v-6.15h14.61a1.09,1.09,0,0,0,.57-.21.68.68,0,0,0,.21-.53.76.76,0,0,0-.73-.78h-7.77a6.94,6.94,0,1,1,0-13.88v-.05Z"/><path class="cls-2" d="M145,289.58V305h-6.16v-15.4h-7.72v-6.15h21.56v6.15Z"/><path class="cls-2" d="M170.43,289.58H155.82v-6.15h14.61a6.94,6.94,0,1,1,.21,13.88h0l7.67,7.72h-8.66l-7.73-7.72V305h-6.16V291.15h14.62a.59.59,0,0,0,.52-.21.76.76,0,0,0,0-1.09A.61.61,0,0,0,170.43,289.58Z"/><path class="cls-2" d="M202,289.58H180.4v-6.15H202Zm0,7.73H180.4v-6.16H202Zm0,7.72H180.4v-6.15H202Z"/><path class="cls-2" d="M215.84,305a10.86,10.86,0,1,1,7.62-3.18A10.63,10.63,0,0,1,215.84,305Zm0-6.15a4.65,4.65,0,1,0-4.65-4.65,4.64,4.64,0,0,0,4.65,4.65Z"/><path class="cls-2" d="M244.44,283.43h14.62v6.15H244.44a.77.77,0,0,0-.83.74.76.76,0,0,0,.73.83h7.83a6.94,6.94,0,1,1,0,13.88H237.55v-6.15h14.62a1,1,0,0,0,.52-.21.72.72,0,0,0,.21-.53.77.77,0,0,0-.73-.78h-7.73a6.94,6.94,0,0,1,0-13.88v-.05Z"/><path class="cls-2" d="M277.48,305l-5.74-10L266,305h-7.1l12.84-22.28L284.58,305Z"/><path class="cls-2" d="M294.08,289.58V305h-6.16v-15.4h-7.73v-6.15h21.56v6.15Z"/><path class="cls-2" d="M326.38,289.58H304.83v-6.15h21.55Zm0,7.73H304.83v-6.16h21.55Zm0,7.72H304.83v-6.15h21.55Z"/><path class="cls-2" d="M335.62,298.88h15.45V305H329.46v-21.6h6.16v15.45Z"/><path class="cls-2" d="M360.31,305h-6.16V283.48h6.16Z"/><path class="cls-2" d="M377.22,289.58V305h-6.16v-15.4h-7.72v-6.15h21.55v6.15Z"/><path class="cls-2" d="M412.66,298.88h15.4V305H406.5v-21.6h6.16Z"/><path class="cls-3" d="M254.2,162.7A35.22,35.22,0,0,0,219,197.93h0c0,19.47,35.23,70.83,35.23,70.83s35.23-51.36,35.23-70.83A35.22,35.22,0,0,0,254.2,162.7Zm0,50.27a16.58,16.58,0,1,1,16.55-16.6h0A16.6,16.6,0,0,1,254.2,213Z"/><path class="cls-1" d="M245.85,255.29c4.8,8,8.3,13.47,8.3,13.47s35.23-51.36,35.23-70.83a27.12,27.12,0,0,0-.16-3,85.4,85.4,0,0,1-5.79,15.71c-6.68,13.88-16.55,22.81-27,34C253.11,248.3,249.56,251.9,245.85,255.29Z"/><path class="cls-2" d="M399.14,305l-5.74-10-5.74,10h-7.1l12.84-22.28L406.24,305Z"/><path class="cls-4" d="M33.37,225.18V182.75H57.59v42.38A17.65,17.65,0,0,0,62.91,238a17.26,17.26,0,0,0,12.84,5.32,18.18,18.18,0,0,0,18.17-18.16V182.75h24.21v42.38a40.71,40.71,0,0,1-12.42,30A40.94,40.94,0,0,1,75.8,267.56a40.9,40.9,0,0,1-30-12.42A40.83,40.83,0,0,1,33.37,225.18Z"/><path class="cls-4" d="M187.86,207H130.29V182.75h57.57A27.26,27.26,0,0,1,215.11,210a26.54,26.54,0,0,1-4.54,15.14,27.32,27.32,0,0,1-3.45,34.39,26.5,26.5,0,0,1-19.26,8H130.29V243.34h57.57a3,3,0,1,0,.21-6.05H130.29V213h57.57a3,3,0,1,0,.21-6.06Z"/><path class="cls-4" d="M349.71,237.7H295.17V213.49h54.54Z"/><path class="cls-4" d="M386,237.7V268H361.82V183.22H386v30.27l30.27-30.27H450.5L408.12,225.6,450.5,268H416.31Z"/></svg>